<svg width="342" height="87" viewBox="0 0 342 87" fill="none" xmlns="http://www.w3.org/2000/svg">
<g filter="url(#filter0_d)">
<rect x="10" y="6" width="322" height="67" fill="white"/>
<path d="M91.948 46.144C90.748 46.144 89.71 45.886 88.834 45.37C87.958 44.842 87.28 44.092 86.8 43.12C86.332 42.136 86.098 40.978 86.098 39.646C86.098 38.326 86.332 37.18 86.8 36.208C87.28 35.224 87.958 34.474 88.834 33.958C89.71 33.43 90.748 33.166 91.948 33.166C92.752 33.166 93.508 33.298 94.216 33.562C94.936 33.814 95.56 34.18 96.088 34.66C96.28 34.84 96.376 35.05 96.376 35.29C96.376 35.458 96.328 35.608 96.232 35.74C96.136 35.86 96.022 35.92 95.89 35.92C95.746 35.92 95.572 35.854 95.368 35.722C94.756 35.242 94.198 34.906 93.694 34.714C93.202 34.522 92.632 34.426 91.984 34.426C90.592 34.426 89.518 34.882 88.762 35.794C88.018 36.694 87.646 37.978 87.646 39.646C87.646 41.326 88.018 42.622 88.762 43.534C89.518 44.434 90.592 44.884 91.984 44.884C92.62 44.884 93.19 44.788 93.694 44.596C94.198 44.404 94.756 44.068 95.368 43.588C95.572 43.456 95.746 43.39 95.89 43.39C96.022 43.39 96.136 43.45 96.232 43.57C96.328 43.69 96.376 43.84 96.376 44.02C96.376 44.26 96.28 44.47 96.088 44.65C95.56 45.13 94.936 45.502 94.216 45.766C93.508 46.018 92.752 46.144 91.948 46.144ZM101.992 46.126C101.164 46.126 100.432 45.94 99.7959 45.568C99.1719 45.196 98.6859 44.668 98.3379 43.984C98.0019 43.288 97.8339 42.484 97.8339 41.572C97.8339 40.66 98.0019 39.862 98.3379 39.178C98.6859 38.482 99.1719 37.948 99.7959 37.576C100.432 37.204 101.164 37.018 101.992 37.018C102.82 37.018 103.552 37.204 104.188 37.576C104.824 37.948 105.31 38.482 105.646 39.178C105.994 39.862 106.168 40.66 106.168 41.572C106.168 42.484 105.994 43.288 105.646 43.984C105.31 44.668 104.824 45.196 104.188 45.568C103.552 45.94 102.82 46.126 101.992 46.126ZM101.992 44.92C102.856 44.92 103.516 44.638 103.972 44.074C104.44 43.498 104.674 42.664 104.674 41.572C104.674 40.504 104.44 39.682 103.972 39.106C103.504 38.518 102.844 38.224 101.992 38.224C101.14 38.224 100.48 38.518 100.012 39.106C99.5439 39.682 99.3099 40.504 99.3099 41.572C99.3099 42.652 99.5379 43.48 99.9939 44.056C100.462 44.632 101.128 44.92 101.992 44.92ZM112.75 37.018C114.85 37.018 115.9 38.176 115.9 40.492V45.37C115.9 45.598 115.834 45.778 115.702 45.91C115.582 46.03 115.408 46.09 115.18 46.09C114.952 46.09 114.772 46.03 114.64 45.91C114.508 45.778 114.442 45.598 114.442 45.37V40.582C114.442 39.766 114.28 39.172 113.956 38.8C113.644 38.428 113.14 38.242 112.444 38.242C111.64 38.242 110.998 38.488 110.518 38.98C110.038 39.472 109.798 40.138 109.798 40.978V45.37C109.798 45.598 109.732 45.778 109.6 45.91C109.48 46.03 109.306 46.09 109.078 46.09C108.85 46.09 108.67 46.03 108.538 45.91C108.406 45.778 108.34 45.598 108.34 45.37V37.774C108.34 37.558 108.406 37.384 108.538 37.252C108.67 37.12 108.85 37.054 109.078 37.054C109.294 37.054 109.462 37.12 109.582 37.252C109.714 37.384 109.78 37.552 109.78 37.756V38.674C110.068 38.134 110.47 37.726 110.986 37.45C111.502 37.162 112.09 37.018 112.75 37.018ZM122.621 44.938C123.041 44.974 123.251 45.166 123.251 45.514C123.251 45.718 123.173 45.874 123.017 45.982C122.873 46.078 122.651 46.114 122.351 46.09L121.865 46.054C120.905 45.982 120.197 45.694 119.741 45.19C119.285 44.686 119.057 43.924 119.057 42.904V38.386H117.851C117.647 38.386 117.485 38.338 117.365 38.242C117.257 38.134 117.203 37.996 117.203 37.828C117.203 37.648 117.257 37.504 117.365 37.396C117.485 37.288 117.647 37.234 117.851 37.234H119.057V35.2C119.057 34.972 119.123 34.798 119.255 34.678C119.387 34.546 119.567 34.48 119.795 34.48C120.011 34.48 120.185 34.546 120.317 34.678C120.449 34.798 120.515 34.972 120.515 35.2V37.234H122.513C122.705 37.234 122.855 37.288 122.963 37.396C123.083 37.504 123.143 37.648 123.143 37.828C123.143 37.996 123.083 38.134 122.963 38.242C122.855 38.338 122.705 38.386 122.513 38.386H120.515V42.976C120.515 43.636 120.647 44.116 120.911 44.416C121.187 44.704 121.595 44.866 122.135 44.902L122.621 44.938ZM125.426 46.09C125.21 46.09 125.03 46.03 124.886 45.91C124.754 45.778 124.688 45.598 124.688 45.37V37.774C124.688 37.546 124.754 37.372 124.886 37.252C125.03 37.12 125.21 37.054 125.426 37.054C125.642 37.054 125.816 37.12 125.948 37.252C126.08 37.372 126.146 37.546 126.146 37.774V45.37C126.146 45.61 126.08 45.79 125.948 45.91C125.816 46.03 125.642 46.09 125.426 46.09ZM125.426 35.164C125.138 35.164 124.904 35.08 124.724 34.912C124.544 34.744 124.454 34.522 124.454 34.246C124.454 33.982 124.544 33.766 124.724 33.598C124.904 33.43 125.138 33.346 125.426 33.346C125.714 33.346 125.948 33.43 126.128 33.598C126.308 33.766 126.398 33.982 126.398 34.246C126.398 34.522 126.308 34.744 126.128 34.912C125.948 35.08 125.714 35.164 125.426 35.164ZM133.281 37.018C135.381 37.018 136.431 38.176 136.431 40.492V45.37C136.431 45.598 136.365 45.778 136.233 45.91C136.113 46.03 135.939 46.09 135.711 46.09C135.483 46.09 135.303 46.03 135.171 45.91C135.039 45.778 134.973 45.598 134.973 45.37V40.582C134.973 39.766 134.811 39.172 134.487 38.8C134.175 38.428 133.671 38.242 132.975 38.242C132.171 38.242 131.529 38.488 131.049 38.98C130.569 39.472 130.329 40.138 130.329 40.978V45.37C130.329 45.598 130.263 45.778 130.131 45.91C130.011 46.03 129.837 46.09 129.609 46.09C129.381 46.09 129.201 46.03 129.069 45.91C128.937 45.778 128.871 45.598 128.871 45.37V37.774C128.871 37.558 128.937 37.384 129.069 37.252C129.201 37.12 129.381 37.054 129.609 37.054C129.825 37.054 129.993 37.12 130.113 37.252C130.245 37.384 130.311 37.552 130.311 37.756V38.674C130.599 38.134 131.001 37.726 131.517 37.45C132.033 37.162 132.621 37.018 133.281 37.018ZM145.762 37.054C145.99 37.054 146.164 37.12 146.284 37.252C146.416 37.384 146.482 37.558 146.482 37.774V45.388C146.482 45.592 146.416 45.76 146.284 45.892C146.164 46.024 145.99 46.09 145.762 46.09C145.546 46.09 145.372 46.03 145.24 45.91C145.12 45.778 145.06 45.61 145.06 45.406V44.506C144.784 45.034 144.394 45.436 143.89 45.712C143.398 45.988 142.84 46.126 142.216 46.126C141.172 46.126 140.386 45.838 139.858 45.262C139.33 44.674 139.066 43.81 139.066 42.67V37.774C139.066 37.558 139.132 37.384 139.264 37.252C139.396 37.12 139.576 37.054 139.804 37.054C140.032 37.054 140.206 37.12 140.326 37.252C140.458 37.384 140.524 37.558 140.524 37.774V42.634C140.524 43.414 140.68 43.99 140.992 44.362C141.304 44.722 141.796 44.902 142.468 44.902C143.236 44.902 143.854 44.656 144.322 44.164C144.79 43.66 145.024 43 145.024 42.184V37.774C145.024 37.558 145.09 37.384 145.222 37.252C145.354 37.12 145.534 37.054 145.762 37.054ZM152.774 37.018C154.97 37.018 156.068 38.17 156.068 40.474V45.37C156.068 45.586 156.002 45.76 155.87 45.892C155.75 46.024 155.582 46.09 155.366 46.09C155.15 46.09 154.976 46.024 154.844 45.892C154.712 45.76 154.646 45.586 154.646 45.37V44.506C154.418 45.022 154.07 45.424 153.602 45.712C153.134 45.988 152.594 46.126 151.982 46.126C151.418 46.126 150.896 46.012 150.416 45.784C149.948 45.556 149.576 45.238 149.3 44.83C149.024 44.422 148.886 43.972 148.886 43.48C148.886 42.82 149.054 42.31 149.39 41.95C149.726 41.578 150.278 41.314 151.046 41.158C151.814 40.99 152.882 40.906 154.25 40.906H154.646V40.312C154.646 39.592 154.496 39.064 154.196 38.728C153.908 38.392 153.434 38.224 152.774 38.224C151.958 38.224 151.13 38.446 150.29 38.89C149.966 39.094 149.738 39.196 149.606 39.196C149.462 39.196 149.342 39.142 149.246 39.034C149.15 38.926 149.102 38.788 149.102 38.62C149.102 38.452 149.15 38.308 149.246 38.188C149.354 38.056 149.522 37.924 149.75 37.792C150.17 37.552 150.644 37.366 151.172 37.234C151.712 37.09 152.246 37.018 152.774 37.018ZM152.18 44.974C152.9 44.974 153.488 44.734 153.944 44.254C154.412 43.762 154.646 43.132 154.646 42.364V41.842H154.322C153.266 41.842 152.462 41.89 151.91 41.986C151.358 42.07 150.962 42.22 150.722 42.436C150.494 42.64 150.38 42.946 150.38 43.354C150.38 43.822 150.548 44.212 150.884 44.524C151.232 44.824 151.664 44.974 152.18 44.974ZM163.075 37.054C163.579 37.018 163.831 37.222 163.831 37.666C163.831 37.858 163.777 38.014 163.669 38.134C163.561 38.242 163.375 38.308 163.111 38.332L162.571 38.386C161.767 38.458 161.167 38.746 160.771 39.25C160.387 39.742 160.195 40.324 160.195 40.996V45.37C160.195 45.61 160.129 45.79 159.997 45.91C159.865 46.03 159.691 46.09 159.475 46.09C159.259 46.09 159.079 46.03 158.935 45.91C158.803 45.778 158.737 45.598 158.737 45.37V37.774C158.737 37.546 158.809 37.372 158.953 37.252C159.097 37.12 159.271 37.054 159.475 37.054C159.667 37.054 159.829 37.12 159.961 37.252C160.093 37.372 160.159 37.54 160.159 37.756V38.764C160.411 38.236 160.765 37.834 161.221 37.558C161.689 37.282 162.223 37.12 162.823 37.072L163.075 37.054ZM173.341 46.126C172.525 46.126 171.799 45.94 171.163 45.568C170.539 45.196 170.053 44.668 169.705 43.984C169.369 43.3 169.201 42.508 169.201 41.608C169.201 40.708 169.375 39.91 169.723 39.214C170.083 38.518 170.581 37.978 171.217 37.594C171.853 37.21 172.585 37.018 173.413 37.018C173.869 37.018 174.319 37.084 174.763 37.216C175.219 37.336 175.615 37.516 175.951 37.756C176.167 37.9 176.317 38.044 176.401 38.188C176.497 38.32 176.545 38.47 176.545 38.638C176.545 38.806 176.497 38.944 176.401 39.052C176.317 39.16 176.203 39.214 176.059 39.214C175.975 39.214 175.885 39.19 175.789 39.142C175.693 39.094 175.609 39.046 175.537 38.998C175.477 38.95 175.435 38.92 175.411 38.908C175.099 38.704 174.799 38.542 174.511 38.422C174.235 38.302 173.893 38.242 173.485 38.242C172.609 38.242 171.925 38.542 171.433 39.142C170.953 39.73 170.713 40.552 170.713 41.608C170.713 42.664 170.953 43.48 171.433 44.056C171.925 44.632 172.609 44.92 173.485 44.92C173.893 44.92 174.241 44.86 174.529 44.74C174.829 44.62 175.129 44.458 175.429 44.254C175.561 44.17 175.687 44.098 175.807 44.038C175.927 43.978 176.029 43.948 176.113 43.948C176.245 43.948 176.353 44.002 176.437 44.11C176.533 44.218 176.581 44.356 176.581 44.524C176.581 44.68 176.539 44.824 176.455 44.956C176.371 45.076 176.215 45.214 175.987 45.37C175.651 45.598 175.243 45.784 174.763 45.928C174.295 46.06 173.821 46.126 173.341 46.126ZM181.972 46.126C181.144 46.126 180.412 45.94 179.776 45.568C179.152 45.196 178.666 44.668 178.318 43.984C177.982 43.288 177.814 42.484 177.814 41.572C177.814 40.66 177.982 39.862 178.318 39.178C178.666 38.482 179.152 37.948 179.776 37.576C180.412 37.204 181.144 37.018 181.972 37.018C182.8 37.018 183.532 37.204 184.168 37.576C184.804 37.948 185.29 38.482 185.626 39.178C185.974 39.862 186.148 40.66 186.148 41.572C186.148 42.484 185.974 43.288 185.626 43.984C185.29 44.668 184.804 45.196 184.168 45.568C183.532 45.94 182.8 46.126 181.972 46.126ZM181.972 44.92C182.836 44.92 183.496 44.638 183.952 44.074C184.42 43.498 184.654 42.664 184.654 41.572C184.654 40.504 184.42 39.682 183.952 39.106C183.484 38.518 182.824 38.224 181.972 38.224C181.12 38.224 180.46 38.518 179.992 39.106C179.524 39.682 179.29 40.504 179.29 41.572C179.29 42.652 179.518 43.48 179.974 44.056C180.442 44.632 181.108 44.92 181.972 44.92ZM192.731 37.018C194.831 37.018 195.881 38.176 195.881 40.492V45.37C195.881 45.598 195.815 45.778 195.683 45.91C195.563 46.03 195.389 46.09 195.161 46.09C194.933 46.09 194.753 46.03 194.621 45.91C194.489 45.778 194.423 45.598 194.423 45.37V40.582C194.423 39.766 194.261 39.172 193.937 38.8C193.625 38.428 193.121 38.242 192.425 38.242C191.621 38.242 190.979 38.488 190.499 38.98C190.019 39.472 189.779 40.138 189.779 40.978V45.37C189.779 45.598 189.713 45.778 189.581 45.91C189.461 46.03 189.287 46.09 189.059 46.09C188.831 46.09 188.651 46.03 188.519 45.91C188.387 45.778 188.321 45.598 188.321 45.37V37.774C188.321 37.558 188.387 37.384 188.519 37.252C188.651 37.12 188.831 37.054 189.059 37.054C189.275 37.054 189.443 37.12 189.563 37.252C189.695 37.384 189.761 37.552 189.761 37.756V38.674C190.049 38.134 190.451 37.726 190.967 37.45C191.483 37.162 192.071 37.018 192.731 37.018ZM212.84 39.394C213.02 39.394 213.164 39.448 213.272 39.556C213.392 39.664 213.452 39.814 213.452 40.006V44.488C213.452 44.776 213.404 44.992 213.308 45.136C213.224 45.28 213.062 45.394 212.822 45.478C212.342 45.682 211.76 45.844 211.076 45.964C210.392 46.084 209.708 46.144 209.024 46.144C207.764 46.144 206.678 45.886 205.766 45.37C204.854 44.854 204.152 44.11 203.66 43.138C203.18 42.166 202.94 41.002 202.94 39.646C202.94 38.314 203.18 37.162 203.66 36.19C204.14 35.218 204.83 34.474 205.73 33.958C206.63 33.43 207.686 33.166 208.898 33.166C209.738 33.166 210.518 33.298 211.238 33.562C211.958 33.814 212.564 34.18 213.056 34.66C213.26 34.864 213.362 35.074 213.362 35.29C213.362 35.458 213.314 35.608 213.218 35.74C213.122 35.86 213.002 35.92 212.858 35.92C212.714 35.92 212.546 35.848 212.354 35.704C211.73 35.224 211.166 34.894 210.662 34.714C210.158 34.522 209.576 34.426 208.916 34.426C207.488 34.426 206.39 34.876 205.622 35.776C204.866 36.676 204.488 37.966 204.488 39.646C204.488 41.362 204.872 42.67 205.64 43.57C206.42 44.458 207.56 44.902 209.06 44.902C210.176 44.902 211.19 44.734 212.102 44.398V40.546H209.474C209.27 40.546 209.108 40.492 208.988 40.384C208.868 40.276 208.808 40.138 208.808 39.97C208.808 39.79 208.868 39.652 208.988 39.556C209.108 39.448 209.27 39.394 209.474 39.394H212.84ZM219.853 46.126C219.025 46.126 218.293 45.94 217.657 45.568C217.033 45.196 216.547 44.668 216.199 43.984C215.863 43.288 215.695 42.484 215.695 41.572C215.695 40.66 215.863 39.862 216.199 39.178C216.547 38.482 217.033 37.948 217.657 37.576C218.293 37.204 219.025 37.018 219.853 37.018C220.681 37.018 221.413 37.204 222.049 37.576C222.685 37.948 223.171 38.482 223.507 39.178C223.855 39.862 224.029 40.66 224.029 41.572C224.029 42.484 223.855 43.288 223.507 43.984C223.171 44.668 222.685 45.196 222.049 45.568C221.413 45.94 220.681 46.126 219.853 46.126ZM219.853 44.92C220.717 44.92 221.377 44.638 221.833 44.074C222.301 43.498 222.535 42.664 222.535 41.572C222.535 40.504 222.301 39.682 221.833 39.106C221.365 38.518 220.705 38.224 219.853 38.224C219.001 38.224 218.341 38.518 217.873 39.106C217.405 39.682 217.171 40.504 217.171 41.572C217.171 42.652 217.399 43.48 217.855 44.056C218.323 44.632 218.989 44.92 219.853 44.92ZM229.838 46.126C229.01 46.126 228.278 45.94 227.642 45.568C227.018 45.196 226.532 44.668 226.184 43.984C225.848 43.288 225.68 42.484 225.68 41.572C225.68 40.66 225.848 39.862 226.184 39.178C226.532 38.482 227.018 37.948 227.642 37.576C228.278 37.204 229.01 37.018 229.838 37.018C230.666 37.018 231.398 37.204 232.034 37.576C232.67 37.948 233.156 38.482 233.492 39.178C233.84 39.862 234.014 40.66 234.014 41.572C234.014 42.484 233.84 43.288 233.492 43.984C233.156 44.668 232.67 45.196 232.034 45.568C231.398 45.94 230.666 46.126 229.838 46.126ZM229.838 44.92C230.702 44.92 231.362 44.638 231.818 44.074C232.286 43.498 232.52 42.664 232.52 41.572C232.52 40.504 232.286 39.682 231.818 39.106C231.35 38.518 230.69 38.224 229.838 38.224C228.986 38.224 228.326 38.518 227.858 39.106C227.39 39.682 227.156 40.504 227.156 41.572C227.156 42.652 227.384 43.48 227.84 44.056C228.308 44.632 228.974 44.92 229.838 44.92ZM243.296 37.054C243.524 37.054 243.704 37.12 243.836 37.252C243.968 37.384 244.034 37.558 244.034 37.774V45.406C244.034 46.714 243.698 47.698 243.026 48.358C242.354 49.03 241.358 49.366 240.038 49.366C238.754 49.366 237.686 49.114 236.834 48.61C236.402 48.37 236.186 48.094 236.186 47.782C236.186 47.614 236.228 47.476 236.312 47.368C236.408 47.26 236.528 47.206 236.672 47.206C236.792 47.206 237.008 47.29 237.32 47.458C237.74 47.674 238.154 47.848 238.562 47.98C238.97 48.112 239.456 48.178 240.02 48.178C240.872 48.178 241.514 47.95 241.946 47.494C242.378 47.05 242.594 46.396 242.594 45.532V43.984C242.342 44.548 241.952 44.98 241.424 45.28C240.908 45.58 240.296 45.73 239.588 45.73C238.82 45.73 238.136 45.55 237.536 45.19C236.948 44.83 236.486 44.32 236.15 43.66C235.826 43 235.664 42.238 235.664 41.374C235.664 40.51 235.826 39.748 236.15 39.088C236.486 38.428 236.948 37.918 237.536 37.558C238.136 37.198 238.82 37.018 239.588 37.018C240.284 37.018 240.89 37.168 241.406 37.468C241.922 37.768 242.312 38.194 242.576 38.746V37.774C242.576 37.558 242.636 37.384 242.756 37.252C242.888 37.12 243.068 37.054 243.296 37.054ZM239.876 44.524C240.716 44.524 241.376 44.248 241.856 43.696C242.336 43.132 242.576 42.358 242.576 41.374C242.576 40.402 242.336 39.64 241.856 39.088C241.388 38.524 240.728 38.242 239.876 38.242C239.024 38.242 238.352 38.524 237.86 39.088C237.38 39.64 237.14 40.402 237.14 41.374C237.14 42.358 237.38 43.132 237.86 43.696C238.352 44.248 239.024 44.524 239.876 44.524ZM247.471 46.09C247.255 46.09 247.075 46.03 246.931 45.91C246.799 45.778 246.733 45.598 246.733 45.37V33.94C246.733 33.712 246.799 33.538 246.931 33.418C247.075 33.286 247.255 33.22 247.471 33.22C247.675 33.22 247.843 33.286 247.975 33.418C248.119 33.538 248.191 33.712 248.191 33.94V45.37C248.191 45.598 248.119 45.778 247.975 45.91C247.843 46.03 247.675 46.09 247.471 46.09ZM257.702 43.966C257.834 43.966 257.948 44.02 258.044 44.128C258.14 44.236 258.188 44.374 258.188 44.542C258.188 44.842 257.978 45.118 257.558 45.37C257.126 45.622 256.67 45.814 256.19 45.946C255.71 46.066 255.242 46.126 254.786 46.126C253.43 46.126 252.356 45.724 251.564 44.92C250.784 44.116 250.394 43.006 250.394 41.59C250.394 40.69 250.568 39.898 250.916 39.214C251.264 38.518 251.75 37.978 252.374 37.594C253.01 37.21 253.73 37.018 254.534 37.018C255.674 37.018 256.58 37.39 257.252 38.134C257.924 38.878 258.26 39.886 258.26 41.158C258.26 41.398 258.212 41.572 258.116 41.68C258.02 41.788 257.864 41.842 257.648 41.842H251.852C251.96 43.906 252.938 44.938 254.786 44.938C255.254 44.938 255.656 44.878 255.992 44.758C256.328 44.626 256.688 44.452 257.072 44.236C257.384 44.056 257.594 43.966 257.702 43.966ZM254.552 38.152C253.784 38.152 253.166 38.392 252.698 38.872C252.242 39.352 251.972 40.03 251.888 40.906H256.982C256.958 40.018 256.736 39.34 256.316 38.872C255.896 38.392 255.308 38.152 254.552 38.152Z" fill="#383838"/>
<path d="M45.3319 37.38C45.8057 35.9716 46.7199 34.7462 47.9442 33.8786C49.1686 33.011 50.6405 32.5455 52.15 32.5485C53.861 32.5485 55.4081 33.1455 56.6231 34.1226L60.1586 30.6492C58.0041 28.8035 55.2431 27.6643 52.15 27.6643C47.3609 27.6643 43.2381 30.3487 41.2557 34.2808L45.3319 37.38Z" fill="#EA4335"/>
<path d="M56.2404 45.5864C55.1368 46.2859 53.7355 46.659 52.1499 46.659C50.6465 46.662 49.1802 46.2003 47.9585 45.3391C46.7369 44.4779 45.8219 43.2608 45.3431 41.8604L41.2527 44.9119C42.2563 46.908 43.8094 48.5876 45.7357 49.7598C47.662 50.932 49.8842 51.5499 52.1499 51.5432C55.1195 51.5432 57.9565 50.5055 60.0817 48.5584L56.2414 45.5864H56.2404Z" fill="#34A853"/>
<path d="M60.0817 48.5582C62.3041 46.5205 63.7469 43.4879 63.7469 39.6036C63.7469 38.8972 63.6365 38.138 63.4715 37.4326H52.1499V42.0462H58.6662C58.3453 43.5973 57.4817 44.7982 56.2414 45.5862L60.0817 48.5582Z" fill="#4A90E2"/>
<path d="M45.3429 41.8603C45.0953 41.1329 44.9694 40.3708 44.9704 39.6038C44.9704 38.8257 45.0969 38.0785 45.3318 37.38L41.2556 34.2808C40.4217 35.9351 39.9918 37.7576 40.0001 39.6038C40.0001 41.5141 40.4507 43.3149 41.2525 44.9118L45.3429 41.8603Z" fill="#FBBC05"/>
</g>
<defs>
<filter id="filter0_d" x="0" y="0" width="342" height="87" filterUnits="userSpaceOnUse" color-interpolation-filters="sRGB">
<feFlood flood-opacity="0" result="BackgroundImageFix"/>
<feColorMatrix in="SourceAlpha" type="matrix" values="0 0 0 0 0 0 0 0 0 0 0 0 0 0 0 0 0 0 127 0" result="hardAlpha"/>
<feOffset dy="4"/>
<feGaussianBlur stdDeviation="5"/>
<feComposite in2="hardAlpha" operator="out"/>
<feColorMatrix type="matrix" values="0 0 0 0 0 0 0 0 0 0 0 0 0 0 0 0 0 0 0.25 0"/>
<feBlend mode="normal" in2="BackgroundImageFix" result="effect1_dropShadow"/>
<feBlend mode="normal" in="SourceGraphic" in2="effect1_dropShadow" result="shape"/>
</filter>
</defs>
</svg>
