<svg width="363" height="64" viewBox="0 0 363 64" fill="none" xmlns="http://www.w3.org/2000/svg">
<path d="M46.6666 63.9005V57.1663H43.2502V56.3318H51.1145V57.1722H47.7108V63.9062L46.6666 63.9005Z" fill="white"/>
<path d="M65.6465 63.9006L62.7148 60.9546H59.8707V63.9006H58.8137V56.3319H63.285C63.8107 56.325 64.332 56.4189 64.8138 56.6075C65.2504 56.7789 65.6273 57.0527 65.9049 57.4C66.187 57.7639 66.3314 58.1993 66.317 58.6423C66.3247 59.0252 66.2186 59.4032 66.0096 59.7372C65.807 60.0485 65.5235 60.3112 65.1832 60.503C64.8166 60.7052 64.4099 60.8416 63.9853 60.9049L66.9 63.9044L65.6465 63.9006ZM64.265 59.9555C64.5511 59.8592 64.8007 59.6918 64.9846 59.4731C65.1752 59.2293 65.2706 58.9359 65.2558 58.6385C65.2698 58.3406 65.1745 58.0468 64.9846 57.802C64.8002 57.5841 64.5507 57.4176 64.265 57.3216C63.9513 57.2181 63.6193 57.1661 63.285 57.1684H59.8685V60.1144H63.285C63.6199 60.1174 63.9525 60.0635 64.265 59.9555Z" fill="white"/>
<path d="M82.5083 63.9005L81.5709 62.218H76.0299L75.0861 63.9005H73.8882L78.2719 56.3318H79.3289L83.7062 63.9062L82.5083 63.9005ZM78.7972 57.2679L76.4953 61.3776H81.0969L78.7972 57.2679Z" fill="white"/>
<path d="M97.9918 63.9005L91.5496 57.5837V63.9005H90.4927V56.3318H91.5496L97.9918 62.6486V56.3318H99.0488V63.9062L97.9918 63.9005Z" fill="white"/>
<path d="M108.5 63.8461C108.074 63.7684 107.659 63.6509 107.261 63.4958C106.968 63.3856 106.693 63.2415 106.441 63.067V62.041C106.714 62.2412 107.013 62.4103 107.332 62.5444C107.751 62.7273 108.19 62.8729 108.641 62.979C109.136 63.0954 109.645 63.154 110.157 63.1532C110.886 63.1806 111.614 63.069 112.292 62.8258C112.817 62.6095 113.076 62.3282 113.076 61.9913C113.076 61.9064 113.057 61.8222 113.021 61.744C112.984 61.6657 112.93 61.5949 112.862 61.5357C112.684 61.3788 112.479 61.2494 112.254 61.1528C111.968 61.0313 111.674 60.9253 111.374 60.8351C111.043 60.7337 110.695 60.6341 110.336 60.5326C109.881 60.4101 109.439 60.278 108.997 60.1498C108.58 60.0215 108.176 59.862 107.789 59.6731C107.455 59.5181 107.157 59.3084 106.909 59.0548C106.691 58.8224 106.574 58.5276 106.578 58.2241C106.58 57.8389 106.752 57.4699 107.056 57.1981C107.427 56.8624 107.883 56.6122 108.384 56.4688C109.021 56.2836 109.687 56.1944 110.355 56.2047C110.843 56.1982 111.329 56.2373 111.807 56.3214C112.182 56.3919 112.548 56.4965 112.898 56.6334C113.197 56.7522 113.487 56.8883 113.765 57.0411V57.9982L113.488 57.8508C113.241 57.7311 112.987 57.6231 112.728 57.5273C112.371 57.3931 112.005 57.283 111.63 57.1981C111.208 57.1017 110.774 57.0534 110.338 57.0545C109.859 57.0467 109.381 57.0963 108.916 57.2019C108.575 57.268 108.253 57.3985 107.972 57.5848C107.875 57.6407 107.794 57.7162 107.736 57.8053C107.677 57.8944 107.642 57.9945 107.635 58.0977C107.635 58.1803 107.654 58.262 107.691 58.3377C107.728 58.4134 107.781 58.4815 107.849 58.5381C108.022 58.6884 108.224 58.8102 108.444 58.8979C108.721 59.0183 109.007 59.1226 109.298 59.21C109.617 59.3095 109.96 59.4013 110.313 59.5066C110.767 59.6272 111.222 59.7613 111.671 59.9029C112.095 60.0384 112.508 60.2028 112.905 60.3948C113.248 60.5596 113.555 60.7803 113.808 61.0457C114.034 61.289 114.155 61.5965 114.15 61.9128C114.148 62.2281 114.049 62.537 113.864 62.8049C113.678 63.0729 113.414 63.2895 113.099 63.4307C112.185 63.8496 111.163 64.0433 110.138 63.9916C109.587 63.9966 109.038 63.9479 108.5 63.8461Z" fill="white"/>
<path d="M121.546 63.9005V56.3318H126.017C126.547 56.3258 127.071 56.4383 127.54 56.6591C127.988 56.8671 128.366 57.1774 128.637 57.5588C128.904 57.9497 129.045 58.3992 129.045 58.8576C129.045 59.3159 128.904 59.7653 128.637 60.1563C128.365 60.5364 127.987 60.8465 127.54 61.056C127.07 61.2764 126.547 61.3888 126.017 61.3833H122.601V63.9062L121.546 63.9005ZM126.997 60.3248C127.292 60.1908 127.541 59.9877 127.717 59.7371C127.903 59.4716 127.998 59.1625 127.988 58.8489C127.998 58.5365 127.904 58.2287 127.717 57.9646C127.541 57.7142 127.292 57.5111 126.997 57.377C126.696 57.2342 126.359 57.1612 126.017 57.1644H122.601V60.5277H126.017C126.358 60.5317 126.694 60.4621 126.997 60.3248Z" fill="white"/>
<path d="M138.883 63.6839C138.315 63.5001 137.794 63.2141 137.354 62.8435C136.946 62.4955 136.627 62.0732 136.417 61.6051C135.992 60.6322 135.992 59.5516 136.417 58.5788C136.63 58.1104 136.952 57.6877 137.36 57.3383C137.801 56.9687 138.321 56.684 138.889 56.5018C140.244 56.1 141.707 56.1 143.062 56.5018C143.63 56.6826 144.151 56.9675 144.591 57.3383C144.997 57.6888 145.316 58.1121 145.528 58.5806C145.953 59.5534 145.953 60.6342 145.528 61.607C145.318 62.0751 144.998 62.4975 144.591 62.8455C144.151 63.2173 143.631 63.5034 143.062 63.6858C141.707 64.0882 140.244 64.0882 138.889 63.6858L138.883 63.6839ZM143.049 62.7268C143.584 62.4755 144.029 62.0923 144.33 61.6223C144.619 61.1536 144.771 60.6267 144.771 60.0909C144.771 59.5552 144.619 59.0283 144.33 58.5596C144.029 58.0889 143.585 57.705 143.049 57.4532C142.397 57.1814 141.688 57.0405 140.969 57.0405C140.25 57.0405 139.541 57.1814 138.889 57.4532C138.349 57.7036 137.901 58.0876 137.597 58.5596C137.308 59.0284 137.157 59.5553 137.157 60.0909C137.157 60.6266 137.308 61.1535 137.597 61.6223C137.901 62.0935 138.35 62.4769 138.889 62.7268C139.541 62.9988 140.25 63.1397 140.969 63.1397C141.688 63.1397 142.397 62.9988 143.049 62.7268Z" fill="white"/>
<path d="M160.054 63.9006L157.122 60.9546H154.278V63.9006H153.221V56.3319H157.692C158.218 56.3249 158.739 56.4189 159.221 56.6075C159.658 56.7789 160.035 57.0527 160.312 57.4C160.595 57.7636 160.74 58.1991 160.726 58.6423C160.734 59.0252 160.628 59.4032 160.419 59.7372C160.217 60.0485 159.933 60.3112 159.593 60.503C159.226 60.7052 158.819 60.8417 158.395 60.9049L161.309 63.9045L160.054 63.9006ZM158.674 59.9555C158.961 59.8592 159.21 59.6918 159.394 59.4731C159.585 59.2296 159.681 58.936 159.665 58.6385C159.679 58.3406 159.584 58.0468 159.394 57.802C159.21 57.5841 158.96 57.4176 158.674 57.3216C158.361 57.2181 158.029 57.1662 157.694 57.1684H154.278V60.1144H157.694C158.029 60.1171 158.36 60.0632 158.672 59.9555H158.674Z" fill="white"/>
<path d="M171.245 63.9005V57.1663H167.841V56.3318H175.706V57.1722H172.302V63.9062L171.245 63.9005Z" fill="white"/>
<path d="M195.126 63.8461C194.701 63.7684 194.286 63.6509 193.888 63.4958C193.594 63.3856 193.319 63.2415 193.068 63.067V62.041C193.34 62.2412 193.639 62.4103 193.958 62.5444C194.377 62.7272 194.816 62.8728 195.267 62.979C195.762 63.0954 196.271 63.1539 196.783 63.1532C197.513 63.1806 198.24 63.069 198.918 62.8258C199.444 62.6095 199.702 62.3282 199.702 61.9913C199.702 61.9064 199.684 61.8222 199.647 61.744C199.61 61.6657 199.556 61.5948 199.488 61.5357C199.31 61.3788 199.105 61.2494 198.88 61.1528C198.594 61.0313 198.3 60.9252 198 60.8351C197.669 60.7337 197.321 60.6341 196.962 60.5326C196.508 60.4101 196.066 60.278 195.621 60.1498C195.204 60.0214 194.8 59.8619 194.413 59.6731C194.079 59.5181 193.781 59.3084 193.533 59.0548C193.315 58.8224 193.198 58.5277 193.202 58.2241C193.204 57.8388 193.376 57.4698 193.68 57.1981C194.051 56.8624 194.507 56.6122 195.009 56.4688C195.645 56.2836 196.311 56.1944 196.979 56.2047C197.467 56.1982 197.953 56.2373 198.431 56.3214C198.806 56.3919 199.172 56.4965 199.523 56.6334C199.821 56.7523 200.111 56.8884 200.389 57.0411V57.9982L200.112 57.8508C199.864 57.7311 199.61 57.6231 199.35 57.5273C198.993 57.3931 198.627 57.283 198.252 57.1981C197.83 57.1017 197.396 57.0534 196.96 57.0545C196.481 57.0467 196.003 57.0964 195.538 57.2019C195.197 57.268 194.875 57.3985 194.594 57.5848C194.497 57.6405 194.416 57.716 194.357 57.8052C194.299 57.8943 194.264 57.9945 194.257 58.0977C194.257 58.1803 194.276 58.262 194.313 58.3377C194.35 58.4134 194.403 58.4815 194.47 58.5381C194.644 58.6883 194.846 58.8101 195.066 58.8979C195.343 59.0184 195.628 59.1226 195.92 59.21C196.239 59.3095 196.582 59.4013 196.935 59.5066C197.389 59.6272 197.842 59.7613 198.29 59.9029C198.715 60.0385 199.127 60.2029 199.523 60.3948C199.866 60.5597 200.172 60.7804 200.426 61.0457C200.651 61.289 200.772 61.5965 200.767 61.9128C200.766 62.2281 200.667 62.537 200.482 62.8049C200.296 63.0729 200.031 63.2895 199.717 63.4307C198.803 63.8496 197.78 64.0433 196.755 63.9916C196.208 63.9961 195.662 63.9473 195.126 63.8461Z" fill="white"/>
<path d="M210.645 63.6852C210.078 63.5014 209.558 63.2153 209.119 62.8448C208.71 62.4972 208.389 62.0748 208.179 61.6063C207.754 60.6335 207.754 59.5528 208.179 58.58C208.391 58.1111 208.711 57.6878 209.119 57.3377C209.558 56.9681 210.078 56.6833 210.645 56.5012C212 56.0992 213.463 56.0992 214.818 56.5012C215.386 56.682 215.907 56.9669 216.346 57.3377C216.754 57.688 217.074 58.1113 217.286 58.58C217.71 59.553 217.71 60.6333 217.286 61.6063C217.075 62.0746 216.755 62.4969 216.346 62.8448C215.907 63.2166 215.387 63.5027 214.818 63.6852C213.463 64.0875 212 64.0875 210.645 63.6852ZM214.811 62.7281C215.351 62.478 215.799 62.0947 216.103 61.6235C216.392 61.1547 216.544 60.6279 216.544 60.0922C216.544 59.5565 216.392 59.0296 216.103 58.5608C215.799 58.089 215.351 57.7051 214.811 57.4544C214.16 57.1826 213.45 57.0418 212.731 57.0418C212.013 57.0418 211.303 57.1826 210.652 57.4544C210.112 57.7046 209.663 58.0887 209.36 58.5608C209.07 59.0294 208.918 59.5564 208.918 60.0922C208.918 60.628 209.07 61.1549 209.36 61.6235C209.664 62.095 210.112 62.4784 210.652 62.7281C211.303 63.0001 212.013 63.1412 212.731 63.1412C213.45 63.1412 214.16 63.0001 214.811 62.7281Z" fill="white"/>
<path d="M225.009 63.9005V56.3318H226.066V63.0659H231.818V63.9062L225.009 63.9005Z" fill="white"/>
<path d="M239.437 62.8417C238.855 62.0229 238.579 61.0597 238.647 60.091V56.3086H239.704V60.0968C239.701 60.4937 239.736 60.89 239.809 61.2816C239.869 61.6288 240.01 61.9608 240.223 62.256C240.436 62.5449 240.737 62.7728 241.09 62.9125C242.055 63.2318 243.115 63.2318 244.079 62.9125C244.433 62.7728 244.734 62.545 244.946 62.256C245.158 61.9606 245.298 61.6286 245.358 61.2816C245.431 60.8901 245.467 60.4938 245.465 60.0968V56.3086H246.522V60.0968C246.589 61.0655 246.313 62.0283 245.732 62.8474C244.89 63.5802 243.763 63.9903 242.59 63.9903C241.417 63.9903 240.29 63.5802 239.448 62.8474L239.437 62.8417Z" fill="white"/>
<path d="M257.315 63.9005V57.1663H253.912V56.3318H261.776V57.1722H258.372V63.9062L257.315 63.9005Z" fill="white"/>
<path d="M268.385 63.9005V56.3318H269.442V63.9062L268.385 63.9005Z" fill="white"/>
<path d="M279.926 63.6851C279.358 63.5015 278.837 63.2154 278.397 62.8447C277.989 62.497 277.669 62.0746 277.46 61.6063C277.034 60.6336 277.034 59.5526 277.46 58.5799C277.671 58.1111 277.99 57.6878 278.397 57.3376C278.837 56.9679 279.358 56.6831 279.926 56.5011C280.597 56.2911 281.304 56.1894 282.014 56.2006C282.723 56.1888 283.428 56.2906 284.096 56.5011C284.665 56.6818 285.186 56.9667 285.625 57.3376C286.032 57.6881 286.352 58.1113 286.565 58.5799C286.989 59.5529 286.989 60.6333 286.565 61.6063C286.354 62.0745 286.033 62.4967 285.625 62.8447C285.186 63.2165 284.665 63.5027 284.096 63.6851C283.428 63.8962 282.723 63.9987 282.014 63.9876C281.304 63.9981 280.597 63.8957 279.926 63.6851ZM284.092 62.728C284.631 62.4779 285.08 62.0946 285.384 61.6234C285.673 61.1547 285.825 60.6278 285.825 60.0921C285.825 59.5564 285.673 59.0295 285.384 58.5608C285.08 58.0889 284.632 57.705 284.092 57.4544C283.44 57.1825 282.731 57.0417 282.012 57.0417C281.294 57.0417 280.584 57.1825 279.932 57.4544C279.392 57.7046 278.944 58.0887 278.641 58.5608C278.351 59.0295 278.2 59.5564 278.2 60.0921C278.2 60.6278 278.351 61.1547 278.641 61.6234C278.944 62.0948 279.393 62.4782 279.932 62.728C280.584 63.0001 281.294 63.1411 282.012 63.1411C282.731 63.1411 283.441 63.0001 284.092 62.728Z" fill="white"/>
<path d="M302.082 63.9005L295.64 57.5837V63.9005H294.583V56.3318H295.64L302.082 62.6486V56.3318H303.139V63.9062L302.082 63.9005Z" fill="white"/>
<path d="M312.89 63.8461C312.465 63.7684 312.05 63.6509 311.652 63.4958C311.359 63.3854 311.083 63.2412 310.832 63.067V62.041C311.105 62.2411 311.405 62.4102 311.725 62.5444C312.144 62.7274 312.582 62.873 313.034 62.979C313.528 63.0954 314.038 63.154 314.55 63.1532C315.279 63.1807 316.007 63.0691 316.685 62.8258C317.21 62.6095 317.471 62.3282 317.471 61.9913C317.471 61.9064 317.452 61.8222 317.415 61.744C317.379 61.6657 317.325 61.5949 317.257 61.5356C317.079 61.3791 316.873 61.2497 316.649 61.1528C316.363 61.0314 316.069 60.9253 315.769 60.8351C315.438 60.7337 315.09 60.6341 314.731 60.5326C314.276 60.4101 313.834 60.278 313.392 60.1498C312.975 60.0214 312.571 59.8619 312.184 59.6731C311.85 59.518 311.552 59.3083 311.304 59.0548C311.086 58.8224 310.969 58.5277 310.973 58.2241C310.975 57.8389 311.147 57.4699 311.451 57.1981C311.822 56.8625 312.278 56.6123 312.779 56.4688C313.416 56.2836 314.081 56.1943 314.75 56.2047C315.237 56.1982 315.724 56.2373 316.202 56.3214C316.577 56.3919 316.942 56.4965 317.293 56.6334C317.592 56.7522 317.882 56.8883 318.16 57.0411V57.9982L317.883 57.8508C317.636 57.7312 317.382 57.6233 317.123 57.5273C316.767 57.3931 316.4 57.283 316.025 57.1981C315.606 57.1025 315.176 57.0542 314.744 57.0545C314.265 57.0466 313.786 57.0963 313.322 57.202C312.98 57.2679 312.657 57.3984 312.376 57.5848C312.279 57.6409 312.198 57.7164 312.14 57.8055C312.082 57.8946 312.048 57.9947 312.041 58.0977C312.041 58.1803 312.06 58.262 312.096 58.3377C312.133 58.4134 312.187 58.4816 312.254 58.5381C312.428 58.6884 312.629 58.8101 312.85 58.8979C313.127 59.0184 313.412 59.1227 313.704 59.21C314.022 59.3095 314.366 59.4013 314.718 59.5066C315.173 59.6272 315.626 59.7613 316.074 59.9029C316.499 60.0384 316.912 60.2028 317.308 60.3948C317.651 60.5596 317.957 60.7804 318.209 61.0456C318.435 61.2889 318.556 61.5965 318.551 61.9128C318.55 62.2281 318.451 62.537 318.265 62.8049C318.08 63.0729 317.815 63.2895 317.501 63.4307C316.586 63.8499 315.563 64.0435 314.537 63.9916C313.984 63.9972 313.432 63.9485 312.89 63.8461Z" fill="white"/>
<path d="M35.0335 18.6112C32.9303 17.7296 30.7613 16.98 28.5423 16.3677C26.2874 15.7456 23.9408 15.1522 21.5877 14.6067L20.8104 14.4152C19.2773 14.0324 17.8211 13.684 16.4523 13.3088C15.0156 12.937 13.6046 12.4896 12.2266 11.9689C11.2806 11.6479 10.3992 11.1908 9.6173 10.6156C9.45094 10.513 9.31354 10.3771 9.21605 10.2186C9.11857 10.0601 9.06367 9.88332 9.05572 9.70246C9.05572 9.29091 9.62797 8.85261 10.1234 8.55399C11.4341 7.81896 12.8882 7.31296 14.4089 7.06279C16.6711 6.61769 18.9836 6.41085 21.2994 6.44644C23.4015 6.44056 25.498 6.64085 27.5515 7.04369C29.3821 7.40065 31.184 7.86685 32.9452 8.43915C34.6278 8.99618 35.8151 9.43066 36.65 9.79435L38.0614 10.4471C38.2917 10.5534 38.5487 10.6048 38.8076 10.5965C39.0666 10.5881 39.3187 10.5202 39.54 10.3993C39.7612 10.2784 39.9441 10.1086 40.071 9.90616C40.198 9.70369 40.2648 9.47534 40.265 9.24308V5.04526C40.2651 4.80069 40.1914 4.56067 40.0515 4.35068C39.9116 4.1407 39.7109 3.96857 39.4707 3.85268C37.9837 3.14768 36.4506 2.52383 34.8798 1.98446C32.9904 1.34756 31.0408 0.86451 29.0547 0.541159C26.5231 0.153092 23.9573 -0.026963 21.3891 0.00325846C17.849 -0.0410548 14.3203 0.371563 10.9113 1.22837C8.2035 1.89233 5.69679 3.09342 3.57657 4.74283C2.67392 5.42046 1.94524 6.26488 1.44034 7.21836C0.93545 8.17183 0.66627 9.21182 0.651245 10.2672C0.648531 11.1219 0.833638 11.9686 1.19598 12.7592C1.55832 13.5497 2.0908 14.2686 2.76303 14.8747C4.18636 16.1322 5.84975 17.1507 7.67418 17.8818C9.73476 18.7488 11.8654 19.4751 14.048 20.0545C16.7513 20.7819 18.8716 21.3178 20.9086 21.7906C22.8816 22.2673 24.6005 22.6999 26.1636 23.1114C27.6189 23.4899 29.0508 23.9372 30.4534 24.4514C31.4364 24.8042 32.3532 25.2903 33.1716 25.8928C33.3535 26.0014 33.5044 26.1468 33.612 26.3174C33.7196 26.488 33.7808 26.679 33.7908 26.8747C33.7908 27.9811 32.1338 28.8043 30.7459 29.3019C27.4273 30.3121 23.9305 30.7695 20.4282 30.6514C17.944 30.656 15.467 30.4095 13.0444 29.9164C10.853 29.474 8.70941 28.859 6.63857 28.0788C5.14686 27.5407 3.72899 26.8509 2.41284 26.0229C2.18835 25.8726 1.92164 25.7813 1.64255 25.7592C1.36346 25.7371 1.08302 25.7851 0.832595 25.8977C0.582174 26.0104 0.371664 26.1833 0.224619 26.3971C0.0775743 26.6109 -0.000198605 26.8571 3.80878e-07 27.1083V31.6334C0.000717921 31.8497 0.0592407 32.0627 0.170696 32.2546C0.282152 32.4464 0.443267 32.6115 0.640558 32.736C2.04623 33.5825 3.56218 34.2716 5.15457 34.788C7.28457 35.5018 9.48315 36.0388 11.7227 36.3921C14.5505 36.8502 17.4202 37.0688 20.2937 37.0449C25.7074 37.282 31.1082 36.3841 36.067 34.4224C41.166 32.0737 42.2358 28.8311 42.2358 26.5245C42.2429 25.642 42.0555 24.7671 41.6843 23.9498C41.3131 23.1325 40.7654 22.389 40.0728 21.7619C38.6165 20.4502 36.9098 19.3831 35.0335 18.6112Z" fill="white"/>
<path d="M94.6885 2.13397C92.0541 1.06982 89.1926 0.533475 86.3033 0.562389H63.5284C63.1281 0.562389 62.744 0.704946 62.4609 0.958746C62.1778 1.21255 62.0188 1.5568 62.0188 1.91573V35.3185C62.0188 35.6774 62.1778 36.0216 62.4609 36.2754C62.744 36.5292 63.1281 36.6718 63.5284 36.6718H68.9072C69.3075 36.6718 69.6916 36.5292 69.9747 36.2754C70.2578 36.0216 70.4168 35.6774 70.4168 35.3185V25.5465H86.3033C89.1942 25.5753 92.0573 25.0383 94.6928 23.973C97.1242 22.9986 99.2417 21.4895 100.849 19.5857C102.388 17.688 103.218 15.4019 103.218 13.0554C103.218 10.7089 102.388 8.42275 100.849 6.52509C99.2501 4.6114 97.1285 3.09915 94.6885 2.13397ZM86.3033 19.1071H70.4168V6.97876H86.3033C87.8117 6.95942 89.3063 7.2385 90.6806 7.79612C91.9019 8.26278 92.9631 9.0119 93.7554 9.96683C94.4891 10.8545 94.8654 11.9388 94.8231 13.0429C94.8637 14.159 94.4821 15.2545 93.7405 16.1516C92.9498 17.1026 91.8916 17.8484 90.6742 18.3128C89.2964 18.8519 87.8066 19.1227 86.3033 19.1071Z" fill="white"/>
<path d="M153.941 22.8855C155.259 22.5447 156.534 22.0815 157.744 21.5035C159.638 20.5893 161.259 19.281 162.472 17.6884C163.686 16.034 164.319 14.0908 164.287 12.1105C164.347 9.80352 163.48 7.5541 161.844 5.77261C160.194 4.01482 158.064 2.67013 155.662 1.86956C153.001 0.97535 150.177 0.53265 147.335 0.564062H124.558C124.157 0.564062 123.773 0.706619 123.49 0.960419C123.207 1.21422 123.048 1.55847 123.048 1.9174V35.3201C123.048 35.679 123.207 36.0233 123.49 36.2771C123.773 36.5309 124.157 36.6734 124.558 36.6734H129.937C130.337 36.6734 130.721 36.5309 131.004 36.2771C131.287 36.0233 131.446 35.679 131.446 35.3201V23.6818H143.805L158.297 36.2906C158.579 36.5363 158.957 36.6736 159.35 36.6734H165.756C166.055 36.6743 166.348 36.5952 166.598 36.4463C166.847 36.2974 167.041 36.0854 167.155 35.8373C167.27 35.5892 167.299 35.3162 167.24 35.053C167.181 34.7897 167.036 34.5483 166.823 34.3592L153.941 22.8855ZM131.448 6.9785H147.335C148.862 6.96604 150.382 7.17021 151.838 7.58341C152.993 7.90526 154.03 8.50039 154.84 9.30617C155.502 10.119 155.859 11.0986 155.862 12.1048C155.864 13.111 155.511 14.0919 154.853 14.9071C154.039 15.714 152.998 16.3092 151.838 16.6299C150.387 17.0614 148.866 17.2735 147.337 17.2578H131.45L131.448 6.9785Z" fill="white"/>
<path d="M223.252 30.2572H195.468V21.8155H219.075C219.476 21.8155 219.86 21.673 220.143 21.4192C220.426 21.1654 220.585 20.8211 220.585 20.4622V16.7525C220.585 16.3936 220.426 16.0493 220.143 15.7955C219.86 15.5417 219.476 15.3992 219.075 15.3992H195.468V6.97673H222.05C222.45 6.97673 222.834 6.83411 223.117 6.58031C223.4 6.32651 223.559 5.98232 223.559 5.62339V1.91364C223.559 1.55471 223.4 1.21052 223.117 0.956718C222.834 0.702918 222.45 0.560303 222.05 0.560303H188.579C188.179 0.560303 187.795 0.702918 187.512 0.956718C187.229 1.21052 187.07 1.55471 187.07 1.91364V35.3164C187.07 35.6753 187.229 36.0195 187.512 36.2733C187.795 36.5271 188.179 36.6697 188.579 36.6697H223.252C223.652 36.6697 224.036 36.5271 224.319 36.2733C224.603 36.0195 224.761 35.6753 224.761 35.3164V31.6086C224.761 31.25 224.602 30.9063 224.319 30.6529C224.036 30.3995 223.652 30.2572 223.252 30.2572Z" fill="white"/>
<path d="M274.072 1.22073C273.937 1.01998 273.747 0.853837 273.52 0.73844C273.293 0.623044 273.037 0.562343 272.776 0.562256H267.397C267.136 0.562343 266.879 0.623044 266.652 0.73844C266.425 0.853837 266.235 1.01998 266.1 1.22073L243.776 34.6235C243.639 34.829 243.564 35.0635 243.561 35.3032C243.558 35.5428 243.625 35.779 243.757 35.9875C243.889 36.196 244.08 36.3695 244.311 36.49C244.542 36.6105 244.805 36.6739 245.072 36.6736H251.171C251.435 36.6738 251.695 36.6117 251.925 36.4934C252.154 36.3751 252.345 36.2049 252.478 35.9998L256.849 29.256H283.326L287.667 35.9959C287.8 36.202 287.99 36.3732 288.22 36.4922C288.45 36.6111 288.71 36.6737 288.976 36.6736H295.074C295.341 36.6733 295.604 36.6096 295.834 36.4889C296.065 36.3682 296.256 36.1949 296.388 35.9866C296.519 35.7783 296.587 35.5424 296.584 35.3029C296.581 35.0635 296.507 34.8291 296.37 34.6235L274.072 1.22073ZM279.169 22.8377H260.976L270.072 8.76652L279.169 22.8377Z" fill="white"/>
<path d="M355.983 5.07208C351.46 2.08019 344.971 0.562256 336.699 0.562256H317.77C317.37 0.562256 316.986 0.704813 316.703 0.958613C316.419 1.21241 316.26 1.55667 316.26 1.91559V35.3184C316.26 35.6773 316.419 36.0215 316.703 36.2753C316.986 36.5291 317.37 36.6717 317.77 36.6717H336.699C344.986 36.6717 351.475 35.1403 355.989 32.135C358.186 30.4723 359.951 28.4001 361.162 26.0628C362.372 23.7256 363 21.1796 363 18.6026C363 16.0256 362.372 13.4797 361.162 11.1424C359.951 8.80512 358.186 6.73287 355.989 5.07021L355.983 5.07208ZM346.801 29.0187C343.529 29.907 340.121 30.3244 336.704 30.2553H324.663V6.97862H336.704C340.124 6.89285 343.537 7.31125 346.806 8.21711C349.148 8.81846 351.202 10.0971 352.65 11.8541C353.927 13.9211 354.597 16.2453 354.597 18.6083C354.597 20.9713 353.927 23.2955 352.65 25.3626C351.191 27.1153 349.138 28.3979 346.799 29.0187H346.801Z" fill="white"/>
</svg>
